<?xml version="1.0" encoding="utf-8"?>
<!-- Generator: Adobe Illustrator 16.0.0, SVG Export Plug-In . SVG Version: 6.00 Build 0)  -->
<!DOCTYPE svg PUBLIC "-//W3C//DTD SVG 1.1//EN" "http://www.w3.org/Graphics/SVG/1.1/DTD/svg11.dtd">
<svg version="1.1" id="Layer_1" xmlns="http://www.w3.org/2000/svg" xmlns:xlink="http://www.w3.org/1999/xlink" x="0px" y="0px"
	 width="1380px" height="235px" viewBox="0 0 1380 235" enable-background="new 0 0 1380 235" xml:space="preserve">
<g>
	<g>
		<rect x="106.963" y="6.788" fill="#145014" width="24.302" height="24.302"/>
		
			<rect x="156.354" y="19.509" transform="matrix(0.8634 0.5045 -0.5045 0.8634 38.9886 -80.6864)" fill="#145014" width="24.301" height="24.302"/>
		
			<rect x="192.375" y="55.534" transform="matrix(0.5018 0.865 -0.865 0.5018 160.4458 -143.1922)" fill="#145014" width="24.303" height="24.302"/>
		
			<rect x="57.716" y="19.511" transform="matrix(0.5028 0.8644 -0.8644 0.5028 62.1065 -44.651)" fill="#145014" width="24.302" height="24.302"/>
		
			<rect x="21.979" y="55.817" transform="matrix(0.4943 -0.8693 0.8693 0.4943 -41.8246 64.0394)" fill="#145014" width="24.302" height="24.303"/>
		<rect x="8.542" y="104.996" fill="#145014" width="24.302" height="24.302"/>
		
			<rect x="21.264" y="154.17" transform="matrix(0.5117 0.8591 -0.8591 0.5117 159.2076 52.501)" fill="#145014" width="24.3" height="24.3"/>
		<rect x="106.892" y="203.918" fill="#145014" width="24.302" height="24.303"/>
		
			<rect x="57.415" y="190.478" transform="matrix(0.8563 0.5165 -0.5165 0.8563 114.6566 -6.8107)" fill="#145014" width="24.303" height="24.302"/>
		<rect x="205.242" y="104.996" fill="#145014" width="24.302" height="24.302"/>
		<path fill="#145014" d="M174.46,89.7"/>
		<path fill="#145014" d="M121.466,93.227c2.527,5.687,8.226,9.653,14.851,9.653c8.97,0,16.242-7.272,16.242-16.243
			c0-8.97-7.272-16.242-16.242-16.242c-1.065,0-2.105,0.103-3.113,0.298c1.534-2.479,2.583-5.323,2.583-8.453
			c0-8.97-7.272-16.242-16.243-16.242s-16.242,7.272-16.242,16.242c0,2.862,0.74,5.552,2.04,7.888
			c-0.597-0.088-2.038-0.305-2.952-0.305c-8.97,0-16.242,7.271-16.242,16.243c0,8.97,7.272,16.242,16.242,16.242
			c6.352,0,11.935-3.854,14.605-9.166c-0.572,12.008-4.859,17.898-15.805,23.927c0,0,24.683-0.056,36.405-0.083
			C128.529,112.336,121.537,107.879,121.466,93.227"/>
		<path fill="#145014" d="M137.269,117.075c-10.942,6.036-15.165,11.768-15.729,23.776c2.667-5.313,8.248-9.172,14.599-9.177
			c8.97-0.005,16.247,7.263,16.253,16.232c0.005,8.971-7.262,16.248-16.232,16.253c-0.914,0.001-2.354-0.217-2.952-0.305
			c1.301,2.334,2.043,5.023,2.045,7.888c0.005,8.971-7.262,16.246-16.232,16.252c-8.971,0.006-16.247-7.263-16.253-16.229
			c-0.002-3.132,1.045-5.976,2.577-8.455c-1.007,0.194-2.048,0.299-3.113,0.299c-8.97,0.006-16.247-7.262-16.252-16.232
			c-0.006-8.97,7.262-16.247,16.232-16.252c6.625-0.004,12.325,3.958,14.856,9.645c-0.081-14.651-15.717-23.64-15.717-23.64
			l-70.389-0.055c0,0-0.007,0.762-0.007,1.144c0,48.688,39.471,88.16,88.16,88.16c48.688,0,88.16-39.472,88.16-88.16
			c0-0.382-0.002-0.764-0.007-1.144H137.269z"/>
		
			<rect x="192.582" y="155.302" transform="matrix(0.4943 -0.8693 0.8693 0.4943 -42.0303 262.6595)" fill="#145014" width="24.303" height="24.303"/>
		
			<rect x="156.806" y="191.096" transform="matrix(0.5028 0.8644 -0.8644 0.5028 259.6956 -44.9902)" fill="#145014" width="24.301" height="24.303"/>
	</g>
	<g enable-background="new    ">
		<path fill="#145014" d="M319.768,183.988l14.655-36.688h7.327l14.63,36.663l-7.791,0.024l-2.198-5.625h-16.608l-2.198,5.625
			H319.768z M338.281,157.084l-5.568,13.941h10.99L338.281,157.084z"/>
		<path fill="#145014" d="M361.753,162.465c3.094-1.957,6.676-2.936,10.747-2.936c2.931,0,5.251,0.816,6.961,2.446
			c1.709,1.631,2.564,4.077,2.564,7.338v14.675h-6.839v-1.957c-1.987,1.305-3.778,1.957-5.373,1.957
			c-3.257,0-5.699-0.693-7.327-2.079c-1.629-1.386-2.442-3.302-2.442-5.747c0-2.283,0.769-4.321,2.308-6.115
			c1.539-1.793,4.025-2.69,7.462-2.69c1.579,0,3.37,0.489,5.373,1.468v-0.734c-0.033-1.793-1.336-2.771-3.908-2.935
			c-2.931,0-5.211,0.489-6.839,1.468L361.753,162.465z M375.187,176.65v-2.764c-0.651-1.255-2.198-1.883-4.641-1.883
			c-2.931,0.326-4.479,1.467-4.641,3.424c0.162,1.941,1.71,2.992,4.641,3.155C372.988,178.583,374.535,177.939,375.187,176.65z"/>
		<path fill="#145014" d="M388.131,183.988v-36.688h6.839v36.688H388.131z"/>
		<path fill="#145014" d="M408.745,147.301v14.211c1.14-1.158,2.931-1.818,5.373-1.982c3.745,0,6.717,1.224,8.915,3.67
			c2.198,2.445,3.297,5.299,3.297,8.561c0,3.261-1.099,6.113-3.297,8.56s-5.17,3.669-8.915,3.669c-1.759,0-3.55-0.652-5.373-1.957
			v1.957h-6.839v-36.663L408.745,147.301z M413.874,178.363c4.233-0.163,6.432-2.527,6.595-7.094
			c-0.488-3.75-2.687-5.779-6.595-6.09c-3.094,0.473-4.804,2.079-5.129,4.818v3.963C409.07,176.406,410.78,177.873,413.874,178.363z
			"/>
		<path fill="#145014" d="M433.364,180.65c-2.378-2.389-3.566-5.354-3.566-8.891c0-3.555,1.188-6.522,3.566-8.903
			c2.377-2.381,5.341-3.571,8.891-3.571c3.549,0,6.513,1.19,8.89,3.571c2.378,2.381,3.566,5.349,3.566,8.903
			s-1.188,6.521-3.566,8.902c-2.377,2.381-5.341,3.57-8.89,3.57C438.705,184.232,435.741,183.039,433.364,180.65z M442.23,178.314
			c1.855,0,3.361-0.624,4.519-1.871c1.155-1.248,1.733-2.801,1.733-4.66c0-1.858-0.578-3.416-1.733-4.672
			c-1.157-1.255-2.671-1.883-4.543-1.883c-1.841,0-3.339,0.628-4.494,1.883c-1.156,1.256-1.734,2.813-1.734,4.672
			c0,1.859,0.578,3.412,1.734,4.66C438.867,177.69,440.374,178.314,442.23,178.314z"/>
		<path fill="#145014" d="M465.653,162.221c1.742-1.794,3.866-2.691,6.374-2.691c0.798,0,1.555,0.066,2.271,0.196l-1.074,6.751
			c-0.798-0.718-1.938-1.102-3.42-1.15c-1.66,0.115-3.045,1.321-4.151,3.62v15.042h-6.839v-23.749l6.839-0.733V162.221z"/>
		<path fill="#145014" d="M501.85,160.264v21.768c0,3.424-1.019,6.286-3.054,8.586c-2.035,2.299-4.6,3.513-7.693,3.644l-1.465,0.147
			c-4.723-0.099-8.387-1.452-10.991-4.061l3.175-3.669c1.791,1.304,3.965,2.038,6.521,2.201c2.605,0,4.368-0.611,5.288-1.835
			c0.92-1.223,1.38-2.567,1.38-4.035v-1.223c-1.824,1.467-3.94,2.201-6.351,2.201c-3.745,0-6.554-1.101-8.426-3.302
			c-1.873-2.201-2.81-5.177-2.81-8.927c0-3.588,1.018-6.522,3.054-8.806c2.035-2.282,4.925-3.425,8.67-3.425
			c2.769,0.164,4.723,0.906,5.862,2.227v-2.227L501.85,160.264z M495.011,173.961v-3.963c-0.326-2.739-2.036-4.346-5.129-4.818
			c-4.071,0.146-6.27,2.177-6.595,6.09c0.162,4.566,2.36,6.931,6.595,7.094C492.975,177.873,494.685,176.406,495.011,173.961z"/>
		<path fill="#145014" d="M531.158,147.301v21.279c0,2.771,0.814,4.81,2.442,6.114s3.664,1.956,6.106,1.956s4.478-0.651,6.105-1.956
			s2.442-3.343,2.442-6.114v-21.279h7.327v23.235c0,3.751-1.506,6.931-4.519,9.539c-3.012,2.608-6.798,3.913-11.356,3.913
			c-4.56,0-8.346-1.305-11.357-3.913c-3.013-2.608-4.519-5.788-4.519-9.539v-23.235H531.158z"/>
		<path fill="#145014" d="M569.772,168.433v15.556h-6.839v-23.749l6.839-0.733v2.226c1.645-1.468,3.599-2.202,5.861-2.202
			c3.094,0,5.455,0.938,7.083,2.813s2.442,4.036,2.442,6.481v15.164h-6.839v-13.452c0-1.63-0.406-2.894-1.221-3.791
			c-0.814-0.896-2.044-1.37-3.688-1.419C571.995,165.424,570.782,166.46,569.772,168.433z"/>
		<path fill="#145014" d="M591.632,151.202c0.651-0.661,1.53-0.991,2.638-0.991c1.173,0,2.085,0.33,2.736,0.991
			c0.65,0.66,0.977,1.479,0.977,2.458s-0.326,1.793-0.977,2.445c-0.651,0.652-1.548,0.979-2.688,0.979s-2.035-0.326-2.687-0.979
			s-0.977-1.467-0.977-2.445S590.98,151.862,591.632,151.202z M597.738,183.988v-24.482h-6.839v24.482H597.738z"/>
		<path fill="#145014" d="M608.606,159.529l5.739,15.287l5.862-15.287h6.937l-9.794,24.459h-5.862l-9.818-24.459H608.606z"/>
		<path fill="#145014" d="M630.295,171.76c0-3.588,1.14-6.522,3.42-8.806c2.279-2.282,5.21-3.425,8.793-3.425
			c3.582,0,6.431,1.143,8.548,3.425c2.116,2.283,3.176,5.218,3.176,8.806v2.445h-16.854c0.163,1.305,0.733,2.323,1.71,3.057
			c0.978,0.734,2.116,1.102,3.42,1.102c2.279,0,4.314-0.652,6.105-1.957l3.908,3.913c-1.792,2.446-5.129,3.669-10.014,3.669
			c-3.583,0-6.514-1.141-8.793-3.424C631.435,178.281,630.295,175.347,630.295,171.76z M645.927,166.256
			c-0.977-0.733-2.117-1.101-3.419-1.101c-1.304,0-2.442,0.367-3.42,1.101c-0.977,0.734-1.465,1.753-1.465,3.058h9.77
			C647.393,168.009,646.903,166.99,645.927,166.256z"/>
		<path fill="#145014" d="M665.906,162.221c1.742-1.794,3.866-2.691,6.374-2.691c0.798,0,1.555,0.066,2.271,0.196l-1.074,6.751
			c-0.798-0.718-1.938-1.102-3.42-1.15c-1.66,0.115-3.045,1.321-4.151,3.62v15.042h-6.839v-23.749l6.839-0.733V162.221z"/>
		<path fill="#145014" d="M692.846,160.215c1.27,0.555,2.458,1.378,3.565,2.471l-3.81,4.305c-1.107-1.321-2.491-1.981-4.152-1.981
			c-1.645,0-2.744,0.306-3.297,0.917c-0.554,0.611-0.554,1.166,0,1.663c0.553,0.497,1.652,0.909,3.297,1.235
			c2.426,0.229,4.412,0.922,5.959,2.079s2.32,3.171,2.32,6.041c0,2.315-0.912,4.108-2.735,5.381s-3.948,1.907-6.374,1.907
			c-2.312,0-4.238-0.33-5.776-0.99c-1.539-0.66-2.862-1.545-3.969-2.654l3.785-4.279c1.107,1.32,2.825,2.087,5.153,2.299
			c1.872,0,3.081-0.306,3.627-0.917c0.546-0.612,0.627-1.224,0.244-1.835s-1.673-1.022-3.871-1.234
			c-1.986-0.229-3.806-0.84-5.459-1.834c-1.652-0.995-2.479-2.871-2.479-5.626c0-2.527,0.94-4.456,2.821-5.784
			c1.88-1.329,3.813-1.994,5.801-1.994C689.793,159.383,691.575,159.66,692.846,160.215z"/>
		<path fill="#145014" d="M702.443,151.202c0.651-0.661,1.53-0.991,2.638-0.991c1.173,0,2.085,0.33,2.736,0.991
			c0.65,0.66,0.977,1.479,0.977,2.458s-0.326,1.793-0.977,2.445c-0.651,0.652-1.548,0.979-2.688,0.979s-2.035-0.326-2.687-0.979
			s-0.977-1.467-0.977-2.445S701.792,151.862,702.443,151.202z M708.55,183.988v-24.482h-6.839v24.482H708.55z"/>
		<path fill="#145014" d="M725.55,183.988c-2.769,0-4.967-0.774-6.595-2.324c-1.629-1.549-2.442-3.546-2.442-5.992v-10.59h-3.664
			v-5.527h3.664v-6.629l6.863-0.733v7.362h3.663v5.527h-3.663v9.612c0,1.305,0.272,2.222,0.818,2.751
			c0.545,0.53,1.249,0.795,2.112,0.795c0.26,0,0.871-0.105,1.832-0.317l1.44,4.916C728.407,183.605,727.063,183.988,725.55,183.988z
			"/>
		<path fill="#145014" d="M732.437,171.76c0-3.588,1.14-6.522,3.42-8.806c2.279-2.282,5.21-3.425,8.793-3.425
			c3.582,0,6.431,1.143,8.548,3.425c2.116,2.283,3.176,5.218,3.176,8.806v2.445H739.52c0.163,1.305,0.733,2.323,1.71,3.057
			c0.978,0.734,2.116,1.102,3.42,1.102c2.279,0,4.314-0.652,6.105-1.957l3.908,3.913c-1.792,2.446-5.129,3.669-10.014,3.669
			c-3.583,0-6.514-1.141-8.793-3.424C733.576,178.281,732.437,175.347,732.437,171.76z M748.068,166.256
			c-0.977-0.733-2.117-1.101-3.419-1.101c-1.304,0-2.442,0.367-3.42,1.101c-0.977,0.734-1.465,1.753-1.465,3.058h9.77
			C749.534,168.009,749.045,166.99,748.068,166.256z"/>
		<path fill="#145014" d="M772.786,183.988c-2.769,0-4.967-0.774-6.595-2.324c-1.629-1.549-2.442-3.546-2.442-5.992v-10.59h-3.664
			v-5.527h3.664v-6.629l6.863-0.733v7.362h3.663v5.527h-3.663v9.612c0,1.305,0.272,2.222,0.818,2.751
			c0.545,0.53,1.249,0.795,2.112,0.795c0.26,0,0.871-0.105,1.832-0.317l1.44,4.916C775.644,183.605,774.3,183.988,772.786,183.988z"
			/>
	</g>
	<g enable-background="new    ">
		<path fill="#145014" d="M280.726,70.736h12.418c12.618,0,26.137,7.287,26.137,17.968c0,4.492-3.705,5.39-5.007,5.39h-5.809
			c-2.804,0-5.007-1.297-6.609-4.592c-1.603-3.394-5.408-4.991-10.415-4.991h-14.721c-6.009,0-8.612,2.097-8.612,5.59
			c0,11.58,52.976,4.891,52.976,30.945c0,11.979-7.01,20.364-31.044,20.364h-14.821c-12.618,0-26.137-7.287-26.137-17.968
			c0-4.492,3.705-5.391,5.007-5.391h5.809c2.804,0,5.007,1.297,6.609,4.592c1.603,3.394,5.408,4.99,10.415,4.99h17.125
			c6.008,0,8.612-2.096,8.612-5.59c0-11.579-52.976-5.09-52.976-30.945C249.682,79.122,256.692,70.736,280.726,70.736z"/>
		<path fill="#145014" d="M351.122,142.01c-14.021,0-21.03-6.987-21.03-21.961V74.13c0-1.697,1.302-2.995,3.004-2.995h10.916
			c1.702,0,3.004,1.297,3.004,2.995v16.271h13.62c1.702,0,3.004,1.298,3.004,2.995v5.79c0,1.697-1.302,2.995-3.004,2.995h-13.62
			v17.868c0,6.788,3.505,10.382,8.612,10.382c2.604,0,4.507-0.599,6.71-0.599h1.803c1.702,0,3.004,1.297,3.004,2.994v5.191
			c0,1.496-1.302,2.695-3.004,2.994C361.136,141.611,355.628,142.01,351.122,142.01z"/>
		<path fill="#145014" d="M391.076,118.552c0,8.285,3.806,11.679,9.313,11.679c4.907,0,9.514-3.394,13.119-6.987V90.601
			c0-1.697,1.302-2.995,3.004-2.995h10.916c1.702,0,3.004,1.298,3.004,2.995v47.417c0,1.696-1.302,2.994-3.004,2.994h-10.916
			c-1.702,0-3.004-1.298-3.004-2.994v-3.096c-4.606,3.894-9.614,7.088-17.125,7.088c-13.019,0-22.231-6.888-22.231-23.458V90.601
			c0-1.697,1.302-2.995,3.004-2.995h10.916c1.702,0,3.004,1.298,3.004,2.995V118.552z"/>
		<path fill="#145014" d="M439.44,114.359c0-18.367,10.615-27.75,26.238-27.75c6.009,0,10.014,1.198,14.12,2.495V74.13
			c0-1.697,1.302-2.995,3.004-2.995h10.916c1.702,0,3.004,1.297,3.004,2.995v63.887c0,1.696-1.302,2.994-3.004,2.994h-9.414
			c-1.702,0-3.004-1.298-3.004-2.994v-1.498c-4.507,3.194-10.015,5.49-17.125,5.49C449.956,142.01,439.44,132.627,439.44,114.359z
			 M479.799,125.839v-25.455c-4.106-1.298-8.111-1.997-10.615-1.997c-9.013,0-12.317,4.892-12.317,15.972
			c0,10.981,3.305,15.872,11.315,15.872C471.787,130.23,476.294,128.035,479.799,125.839z"/>
		<path fill="#145014" d="M522.955,119.45c0.701,7.985,4.307,11.479,12.519,11.479c4.206,0,7.911-1.197,9.613-3.295
			c1.302-1.597,3.104-2.595,5.608-2.595h7.311c1.702,0,3.004,1.298,3.004,2.995c0,10.381-10.715,13.975-26.738,13.975
			c-17.825,0-28.541-9.583-28.541-27.651c0-17.968,10.815-27.75,28.541-27.75c17.826,0,28.541,9.483,28.541,27.052v2.795
			c0,1.697-1.302,2.995-3.004,2.995H522.955z M522.855,109.168h22.732c-0.301-7.486-3.905-11.479-11.316-11.479
			C527.062,97.688,523.256,101.682,522.855,109.168z"/>
		<path fill="#145014" d="M611.177,110.066c0-8.285-3.806-11.679-9.313-11.679c-4.907,0-9.514,3.394-13.119,6.988v32.643
			c0,1.696-1.302,2.994-3.004,2.994h-10.916c-1.702,0-3.004-1.298-3.004-2.994V90.601c0-1.697,1.302-2.995,3.004-2.995h10.916
			c1.702,0,3.004,1.298,3.004,2.995v3.095c4.606-3.893,9.614-7.087,17.125-7.087c13.019,0,22.231,6.888,22.231,23.458v27.951
			c0,1.696-1.302,2.994-3.004,2.994h-10.916c-1.702,0-3.004-1.298-3.004-2.994V110.066z"/>
		<path fill="#145014" d="M661.144,142.01c-14.021,0-21.03-6.987-21.03-21.961V74.13c0-1.697,1.302-2.995,3.004-2.995h10.916
			c1.702,0,3.004,1.297,3.004,2.995v16.271h13.62c1.702,0,3.004,1.298,3.004,2.995v5.79c0,1.697-1.302,2.995-3.004,2.995h-13.62
			v17.868c0,6.788,3.505,10.382,8.612,10.382c2.604,0,4.507-0.599,6.71-0.599h1.803c1.702,0,3.004,1.297,3.004,2.994v5.191
			c0,1.496-1.302,2.695-3.004,2.994C671.157,141.611,665.649,142.01,661.144,142.01z"/>
		<path fill="#145014" d="M698.394,119.45c0.701,7.985,4.307,11.479,12.519,11.479c4.206,0,7.911-1.197,9.613-3.295
			c1.302-1.597,3.104-2.595,5.608-2.595h7.311c1.702,0,3.004,1.298,3.004,2.995c0,10.381-10.715,13.975-26.738,13.975
			c-17.825,0-28.541-9.583-28.541-27.651c0-17.968,10.815-27.75,28.541-27.75c17.826,0,28.541,9.483,28.541,27.052v2.795
			c0,1.697-1.302,2.995-3.004,2.995H698.394z M698.294,109.168h22.732c-0.301-7.486-3.905-11.479-11.316-11.479
			C702.5,97.688,698.694,101.682,698.294,109.168z"/>
		<path fill="#145014" d="M788.919,96.99c0,1.697-1.302,2.995-3.004,2.995h-1.603c-2.303,0-4.907-0.299-7.511-0.299
			c-5.007,0-9.013,2.895-12.618,7.187v31.146c0,1.696-1.302,2.994-3.004,2.994h-10.916c-1.702,0-3.004-1.298-3.004-2.994V90.601
			c0-1.697,1.302-2.995,3.004-2.995h10.916c1.702,0,3.004,1.298,3.004,2.995v3.095c5.608-4.093,10.716-7.087,21.731-7.087
			c1.702,0,3.004,1.297,3.004,2.995V96.99z"/>
		<path fill="#145014" d="M819.86,142.01c-16.424,0-26.839-3.594-26.839-13.975c0-1.697,1.302-2.995,3.004-2.995h7.311
			c2.504,0,4.307,0.998,5.608,2.595c1.702,2.098,5.407,3.295,9.714,3.295c8.412,0,11.216-1.896,11.216-4.691
			c0-8.286-36.953-3.693-36.953-23.858c0-11.28,11.316-15.772,25.437-15.772c16.424,0,26.839,3.593,26.839,13.975
			c0,1.697-1.302,2.995-3.005,2.995h-7.31c-2.504,0-4.307-0.998-5.608-2.595c-1.702-2.097-5.408-3.294-9.714-3.294
			c-6.91,0-9.714,1.896-9.714,4.692c0,8.285,36.953,3.494,36.953,23.858C846.799,137.518,835.482,142.01,819.86,142.01z"/>
		<path fill="#145014" d="M872.631,100.983c-1.302,1.597-3.104,2.595-5.608,2.595h-7.311c-1.702,0-3.004-1.298-3.004-2.995
			c0-10.382,10.415-13.975,26.638-13.975c14.421,0,25.737,5.989,25.737,21.262v30.147c0,1.696-1.302,2.994-3.005,2.994h-9.413
			c-1.702,0-3.004-1.298-3.004-2.994v-1.498c-4.507,3.194-10.015,5.49-17.726,5.49c-13.119,0-23.134-5.889-23.134-17.17
			c0-11.279,10.015-16.969,23.134-16.969h16.223c0-7.786-3.305-10.182-10.014-10.182C878.038,97.688,874.333,98.886,872.631,100.983
			z M892.158,126.537v-7.586h-15.021c-4.706,0-7.41,2.596-7.41,5.889c0,3.494,2.704,6.09,7.911,6.09
			C883.646,130.93,888.653,128.733,892.158,126.537z"/>
		<path fill="#145014" d="M956.947,110.066c0-8.285-3.104-11.679-8.513-11.679c-4.206,0-7.311,2.695-10.415,6.988v32.643
			c0,1.696-1.302,2.994-3.004,2.994H924.1c-1.702,0-3.004-1.298-3.004-2.994V90.601c0-1.697,1.302-2.995,3.004-2.995h10.916
			c1.702,0,3.004,1.298,3.004,2.995v3.095c3.906-3.793,8.112-7.087,15.122-7.087c8.012,0,13.419,3.194,17.225,9.383
			c5.608-5.79,11.717-9.383,18.627-9.383c12.217,0,20.729,6.888,20.729,23.458v27.951c0,1.696-1.302,2.994-3.005,2.994h-10.915
			c-1.703,0-3.005-1.298-3.005-2.994v-27.951c0-8.285-3.104-11.679-8.512-11.679c-3.305,0-7.21,2.695-10.716,7.487
			c0.2,1.397,0.301,2.795,0.301,4.192v27.951c0,1.696-1.302,2.994-3.004,2.994h-10.916c-1.702,0-3.004-1.298-3.004-2.994V110.066z"
			/>
		<path fill="#145014" d="M1021.732,95.093c0-17.968,7.01-24.956,28.04-24.956c4.507,0,10.015,0.399,13.019,0.999
			c1.702,0.299,3.004,1.497,3.004,2.995v5.39c0,1.697-1.302,2.995-3.004,2.995h-1.803c-2.203,0-4.105-0.799-6.709-0.799
			c-13.119,0-15.623,2.596-15.623,13.376v0.798h17.726c1.702,0,3.004,1.298,3.004,2.995v5.79c0,1.697-1.302,2.995-3.004,2.995
			h-17.726v30.347c0,1.696-1.302,2.994-3.004,2.994h-10.916c-1.702,0-3.004-1.298-3.004-2.994V95.093z"/>
		<path fill="#145014" d="M1086.722,118.552c0,8.285,3.806,11.679,9.313,11.679c4.907,0,9.514-3.394,13.119-6.987V90.601
			c0-1.697,1.302-2.995,3.004-2.995h10.916c1.702,0,3.004,1.298,3.004,2.995v47.417c0,1.696-1.302,2.994-3.004,2.994h-10.916
			c-1.702,0-3.004-1.298-3.004-2.994v-3.096c-4.606,3.894-9.614,7.088-17.125,7.088c-13.019,0-22.231-6.888-22.231-23.458V90.601
			c0-1.697,1.302-2.995,3.004-2.995h10.916c1.702,0,3.004,1.298,3.004,2.995V118.552z"/>
		<path fill="#145014" d="M1177.447,110.066c0-8.285-3.806-11.679-9.313-11.679c-4.907,0-9.514,3.394-13.119,6.988v32.643
			c0,1.696-1.302,2.994-3.004,2.994h-10.916c-1.702,0-3.004-1.298-3.004-2.994V90.601c0-1.697,1.302-2.995,3.004-2.995h10.916
			c1.702,0,3.004,1.298,3.004,2.995v3.095c4.606-3.893,9.614-7.087,17.125-7.087c13.019,0,22.231,6.888,22.231,23.458v27.951
			c0,1.696-1.302,2.994-3.004,2.994h-10.916c-1.702,0-3.004-1.298-3.004-2.994V110.066z"/>
		<path fill="#145014" d="M1203.379,114.359c0-18.367,10.615-27.75,26.238-27.75c6.008,0,10.014,1.198,14.12,2.495V74.13
			c0-1.697,1.302-2.995,3.004-2.995h10.916c1.702,0,3.004,1.297,3.004,2.995v63.887c0,1.696-1.302,2.994-3.004,2.994h-9.414
			c-1.702,0-3.004-1.298-3.004-2.994v-1.498c-4.507,3.194-10.015,5.49-17.125,5.49
			C1213.895,142.01,1203.379,132.627,1203.379,114.359z M1243.737,125.839v-25.455c-4.106-1.298-8.112-1.997-10.615-1.997
			c-9.013,0-12.317,4.892-12.317,15.972c0,10.981,3.305,15.872,11.315,15.872C1235.726,130.23,1240.232,128.035,1243.737,125.839z"
			/>
		<path fill="#145014" d="M1286.894,119.45c0.701,7.985,4.307,11.479,12.519,11.479c4.206,0,7.911-1.197,9.613-3.295
			c1.302-1.597,3.104-2.595,5.608-2.595h7.311c1.702,0,3.004,1.298,3.004,2.995c0,10.381-10.715,13.975-26.738,13.975
			c-17.825,0-28.541-9.583-28.541-27.651c0-17.968,10.815-27.75,28.541-27.75c17.826,0,28.541,9.483,28.541,27.052v2.795
			c0,1.697-1.302,2.995-3.004,2.995H1286.894z M1286.794,109.168h22.732c-0.301-7.486-3.905-11.479-11.316-11.479
			C1291,97.688,1287.194,101.682,1286.794,109.168z"/>
		<path fill="#145014" d="M1356.789,142.01c-14.021,0-21.03-6.987-21.03-21.961V74.13c0-1.697,1.302-2.995,3.004-2.995h10.916
			c1.702,0,3.004,1.297,3.004,2.995v16.271h13.62c1.702,0,3.004,1.298,3.004,2.995v5.79c0,1.697-1.302,2.995-3.004,2.995h-13.62
			v17.868c0,6.788,3.505,10.382,8.612,10.382c2.604,0,4.507-0.599,6.71-0.599h1.803c1.702,0,3.004,1.297,3.004,2.994v5.191
			c0,1.496-1.302,2.695-3.004,2.994C1366.803,141.611,1361.295,142.01,1356.789,142.01z"/>
	</g>
</g>
</svg>
